<?xml version="1.0"?><svg width="1024" height="768" xmlns="http://www.w3.org/2000/svg">
 <title>pink eiffel ooh-la-la</title>
 <metadata id="metadata3351">image/svg+xml</metadata>
 <g display="inline">
  <title>Layer 1</title>
  <g id="g3353">
   <path id="path3130" d="m179.83725,565.07428c0,0 4.330994,13.53302 1.623993,19.487976c-2.705994,5.957031 225.216003,3.249023 225.216003,3.249023c0,0 -1.084015,-15.158997 1.082001,-18.947998c2.165985,-3.789001 0.540985,-2.705994 0.540985,-2.705994l-228.462982,-1.083008z" fill="#ffaaaa"/>
   <path id="path3132" d="m204.739243,542.336304c0,0 42.228012,-115.855042 42.228012,-119.646027c0,-3.791016 5.414001,-3.248016 5.414001,-3.248016l-28.693008,123.434998l-18.949005,-0.540955z" fill="#ffaaaa"/>
   <polygon id="polygon3134" points="239.38624572753906,411.322265625 248.5902557373047,405.90728759765625 345.4972229003906,407.53228759765625 354.15924072265625,410.7802734375 355.24322509765625,405.90728759765625 346.04022216796875,402.6602783203125 250.2152557373047,401.5772705078125 238.3042449951172,404.2842712402344 239.38624572753906,411.322265625 " fill="#ffaaaa"/>
   <path id="path3136" d="m254.004257,395.622284l11.910965,1.622986l24.362,-304.796997l-4.871979,3.249001c0,0 -9.20401,117.480003 -9.20401,122.352013c0,4.872009 -21.11499,175.947998 -22.196976,177.572998z" fill="#ffaaaa"/>
   <path id="path3138" d="m297.318237,50.491268l8.121002,0.541c0,0 -1.623016,-40.061998 -2.166016,-43.851998c-0.540985,-3.789 -2.704987,-2.165 -2.704987,-2.165l-3.25,45.475998z" fill="#ffaaaa"/>
   <path id="path3140" d="m286.490234,65.377266c-1.188995,1.107002 11.910004,-24.360996 28.692993,-3.788998l-0.136993,5.145c0,0 -13.125,-15.702999 -28.556,-1.356003z" fill="#ffaaaa"/>
   <path id="path3142" d="m282.02124,73.093269l0.270996,7.307999l6.631989,-5.683998l23.684021,0l0.812988,12.992996c0,0 4.46701,-7.03801 5.550995,-7.849998c1.082001,-0.813011 1.218994,-6.632011 1.218994,-6.632011l-5.278992,-5.141983l-27.204987,0.269997l-5.686005,4.737z" fill="#ffaaaa"/>
   <path id="path3144" d="m298.940247,92.449257l4.330994,-1.084c0,0 -3.248016,282.603004 8.121002,304.257027l-29.234009,0c0,0 25.445007,-297.760017 16.782013,-303.173004l0,-0.000023z" fill="#ffaaaa"/>
   <path id="path3146" d="m245.345245,542.880249l7.037003,0.540039c0,0 21.653976,-97.448029 21.113998,-96.365021c-0.541016,1.083008 -5.413971,-0.540009 -5.413971,-0.540009c0,0 -21.113022,95.282043 -22.73703,96.36499z" fill="#ffaaaa"/>
   <path id="path3148" d="m317.347229,448.680267c1.625,0 5.414001,1.082001 5.414001,1.082001c0,0 30.859009,84.996033 32.484009,90.410034c1.622986,5.414978 1.622986,3.790955 1.622986,3.790955l-15.699005,0.541016l-23.821991,-95.824005z" fill="#ffaaaa"/>
   <path id="path3150" d="m346.042236,421.61026c0,1.623016 37.895996,121.269989 37.895996,121.269989l-8.121002,1.624023c0,0 -39.520996,-121.811005 -41.145996,-121.811005c-1.622986,0 11.371002,-1.083008 11.371002,-1.083008z" fill="#ffaaaa"/>
   <path id="path3152" d="m321.681244,395.62326l16.23999,0c0,0 -25.445007,-290.178993 -25.445007,-292.346977c0,-2.164017 8.121002,290.721977 9.205017,292.346977z" fill="#ffaaaa"/>
   <path id="path3154" d="m243.989243,412.946289c0,0 2.167007,2.436981 1.896011,3.789978c-0.272003,1.354004 100.967987,1.623993 100.967987,1.623993c0,0 1.082001,-2.977997 1.894989,-3.517975c0.812012,-0.542023 -104.758987,-1.895996 -104.758987,-1.895996z" fill="#ffaaaa"/>
   <path id="path3156" d="m181.190247,544.231262c0.811005,0 226.838989,1.625 226.838989,1.625c0,0 -2.166016,3.518982 -2.166016,5.684021c0,2.167969 -218.176971,-0.540039 -218.988968,1.083984c-0.813004,1.622986 -5.684006,-8.393005 -5.684006,-8.393005z" fill="#ffaaaa"/>
   <path id="path3158" d="m179.023254,589.979248c-0.268997,0.813049 -59.551003,86.892029 -59.551003,86.892029c0,0 6.766998,6.22699 7.578995,5.955994c0.812004,-0.270996 40.605003,-64.424988 42.500008,-64.695007c1.893997,-0.270996 13.804993,-22.739014 12.992996,-24.09198c-0.813004,-1.354004 -3.520996,-4.061035 -3.520996,-4.061035z" fill="#ffaaaa"/>
   <path id="path3160" d="m188.498245,734.528259c0,-1.083984 14.888,-47.912964 41.415009,-66.59198c26.526993,-18.677002 47.912979,-21.926025 50.348984,-22.194031c2.436005,-0.270996 25.174988,-0.271973 35.459991,1.893005c10.285004,2.166992 43.041016,20.845032 45.47702,24.093018c2.435974,3.247986 17.054993,23.820007 20.571991,28.963989c3.519989,5.143005 10.015991,25.174988 11.640991,36.002014c1.623016,10.827026 2.436005,15.971008 2.436005,15.971008c0,0 -4.60199,-39.791992 -1.084015,-41.687988c3.521027,-1.89502 8.393005,-3.789001 8.393005,-3.789001c0,0 -18.677979,-35.460022 -51.972992,-61.445007c-33.295013,-25.988037 -142.383987,-32.213989 -164.850983,88.515015l2.164993,0.269958z" fill="#ffaaaa"/>
   <path id="path3162" d="m411.546234,595.392273c0,0 55.764008,83.914001 56.304993,85.539001c0.541016,1.624023 -12.453003,7.849976 -12.453003,7.849976l-46.828003,-92.576965l2.976013,-0.812012z" fill="#ffaaaa"/>
   <path id="path3164" d="m182.611252,619.618286c-1.016006,1.422974 -6.903,11.368958 -6.903,11.368958l-5.684998,-8.931946l12.587997,-2.437012z" fill="#ffaaaa"/>
   <path id="path3166" d="m152.969254,649.463257c0.608994,-0.203003 9.94899,0.203003 9.94899,0.203003l6.496002,-11.166016l-16.444992,10.963013z" fill="#ffaaaa"/>
   <path id="path3168" d="m149.112244,654.741272l9.948013,0.812988l-7.512009,10.354004l-2.843002,-10.557007c0.001007,0 0.610001,-1.014954 0.406998,-0.609985z" fill="#ffaaaa"/>
   <polygon id="polygon3170" points="189.1072540283203,647.63525390625 196.21224975585938,637.4852905273438 181.19024658203125,636.0642700195312 189.1072540283203,647.63525390625 " fill="#ffaaaa"/>
   <polygon id="polygon3172" points="185.250244140625,631.395263671875 199.86724853515625,632.206298828125 205.55224609375,621.853271484375 185.250244140625,631.395263671875 " fill="#ffaaaa"/>
   <polygon id="polygon3174" points="188.4982452392578,618.1983032226562 179.76824951171875,629.1612548828125 201.28724670410156,619.8212890625 188.4982452392578,618.1983032226562 " fill="#ffaaaa"/>
   <polygon id="polygon3176" points="184.2342529296875,657.583251953125 176.92625427246094,668.1422729492188 158.65524291992188,668.5473022460938 184.2342529296875,657.583251953125 " fill="#ffaaaa"/>
   <polygon id="polygon3178" points="173.67825317382812,673.4202880859375 165.9632568359375,684.1792602539062 157.43624877929688,673.0132446289062 173.67825317382812,673.4202880859375 " fill="#ffaaaa"/>
   <polygon id="polygon3180" points="152.3612518310547,674.6382446289062 160.8872528076172,686.0072631835938 136.11924743652344,681.5392456054688 152.3612518310547,674.6382446289062 " fill="#ffaaaa"/>
   <polygon id="polygon3182" points="143.83424377441406,662.4552612304688 133.68325805664062,676.4642944335938 148.5032501220703,669.15625 143.83424377441406,662.4552612304688 " fill="#ffaaaa"/>
   <polygon id="polygon3184" points="176.31724548339844,639.312255859375 168.6022491455078,649.666259765625 183.82925415039062,649.666259765625 176.31724548339844,639.312255859375 " fill="#ffaaaa"/>
   <path id="path3186" d="m255.392242,429.289276c0.711029,0.812012 3.553986,4.872986 3.553986,4.872986l1.116028,-8.728973l-4.670013,3.855988z" fill="#ffaaaa"/>
   <path id="path3188" d="m250.620255,422.488281l3.756989,4.770996l5.37999,-5.075989l-9.338989,-1.726013c0,0 -3.857986,15.428986 -3.552994,15.532013c0.304993,0.099976 9.439987,0.303986 9.439987,0.303986l-2.942993,-5.481995l-4.770996,2.031006l2.029007,-10.354004z" fill="#ffaaaa"/>
   <polygon id="polygon3190" points="265.5442199707031,421.57427978515625 274.5782470703125,422.18426513671875 269.5022277832031,427.2602844238281 265.5442199707031,421.57427978515625 " fill="#ffaaaa"/>
   <polygon id="polygon3192" points="268.5892333984375,430.4052734375 262.8032531738281,435.9902648925781 271.126220703125,435.9902648925781 268.5892333984375,430.4052734375 " fill="#ffaaaa"/>
   <polygon id="polygon3194" points="262.5992431640625,424.0112609863281 261.5852355957031,433.75628662109375 266.86322021484375,429.2892761230469 262.5992431640625,424.0112609863281 " fill="#ffaaaa"/>
   <path id="path3196" d="m275.287231,425.229279c0,0.304993 -0.812012,8.324005 -0.812012,8.324005l-3.653992,-4.264008l4.466003,-4.059998z" fill="#ffaaaa"/>
   <polygon id="polygon3198" points="279.2472229003906,424.519287109375 277.521240234375,434.1622619628906 284.1202392578125,429.5942687988281 279.2472229003906,424.519287109375 " fill="#ffaaaa"/>
   <polygon id="polygon3200" points="281.480224609375,422.0812683105469 293.3562316894531,422.38726806640625 287.0622253417969,427.8672790527344 281.480224609375,422.0812683105469 " fill="#ffaaaa"/>
   <path id="path3202" d="m286.252228,430.507263c-0.406006,0.305023 -6.699982,5.380005 -6.699982,5.380005l12.789001,0.507996l-6.08902,-6.190002l0,0.302002z" fill="#ffaaaa"/>
   <polygon id="polygon3204" points="289.09423828125,429.0862731933594 294.8792419433594,435.0752868652344 295.38623046875,423.40228271484375 289.09423828125,429.0862731933594 " fill="#ffaaaa"/>
   <polygon id="polygon3206" points="297.6192321777344,423.9102783203125 297.31622314453125,435.5832824707031 303.3042297363281,430.0002746582031 297.6192321777344,423.9102783203125 " fill="#ffaaaa"/>
   <polygon id="polygon3208" points="299.5492248535156,436.90228271484375 305.9432373046875,431.31927490234375 313.25323486328125,436.8022766113281 299.5492248535156,436.90228271484375 " fill="#ffaaaa"/>
   <polygon id="polygon3210" points="313.8612365722656,425.0252685546875 313.8612365722656,434.061279296875 308.5832214355469,429.4922790527344 313.8612365722656,425.0252685546875 " fill="#ffaaaa"/>
   <polygon id="polygon3212" points="324.6222229003906,448.9822692871094 334.6712341308594,455.072265625 334.5702209472656,448.5772705078125 324.6222229003906,448.9822692871094 " fill="#ffaaaa"/>
   <polygon id="polygon3214" points="290.2772216796875,77.83226776123047 311.6632385253906,77.6962661743164 301.7822265625,89.87626647949219 290.2772216796875,77.83226776123047 " fill="#ffaaaa"/>
   <path id="path3216" d="m319.513245,82.16227c-0.406006,0.676987 -5.955017,9.744987 -5.955017,9.744987l0.675995,20.572006l1.488007,-12.856995l3.11499,-4.195999l0.676025,-13.264z" fill="#ffaaaa"/>
   <path id="path3218" d="m282.834229,82.16227c0,0 5.684021,7.038994 5.412994,8.255997c-0.270996,1.218002 -3.787994,3.518997 -3.787994,3.518997l-2.031982,-0.542l0.406982,-11.232994z" fill="#ffaaaa"/>
   <path id="path3220" d="m276.066223,478.86026c0.406006,0 40.199005,0.812012 40.199005,0.812012l9.06601,61.71701l9.203003,-0.13501l-18,-67.673004l-40.738007,2.707001l0.269989,2.571991z" fill="#ffaaaa"/>
   <path id="path3222" d="m274.714233,476.423279c0,0.406006 -4.333008,52.515015 -10.015961,64.559998l-5.415039,0.137024l14.075989,-64.696014l1.355011,0l0,-0.001007z" fill="#ffaaaa"/>
   <polygon id="polygon3224" points="277.14923095703125,458.01727294921875 275.7962341308594,470.3332824707031 314.5052490234375,471.145263671875 315.72222900390625,459.3692626953125 314.6402282714844,459.2352600097656 312.8822326660156,467.6272888183594 280.3982238769531,467.4902648925781 279.1792297363281,458.5572814941406 298.94024658203125,458.2872619628906 306.65423583984375,458.42327880859375 277.01422119140625,455.57928466796875 277.14923095703125,458.01727294921875 " fill="#ffaaaa"/>
   <path id="path3226" d="m322.89624,452.603271c1.082001,0.406006 12.450989,6.902008 12.450989,6.902008c0,0 -7.171997,6.497986 -7.442993,6.902985c-0.272003,0.406006 -5.007996,-13.804993 -5.007996,-13.804993z" fill="#ffaaaa"/>
   <polygon id="polygon3228" points="327.6322326660156,471.145263671875 336.83721923828125,463.7012634277344 338.5952453613281,471.957275390625 327.4972229003906,471.957275390625 327.6322326660156,471.145263671875 " fill="#ffaaaa"/>
   <polygon id="polygon3230" points="356.19122314453125,521.0552978515625 367.35723876953125,529.2752685546875 360.1502380371094,532.6262817382812 356.19122314453125,521.0552978515625 " fill="#ffaaaa"/>
   <path id="path3232" d="m331.017242,475.273285c0.710999,0.201996 8.423981,0.201996 8.423981,0.201996l2.539001,7.816986l-10.962982,-8.018982z" fill="#ffaaaa"/>
   <path id="path3234" d="m256.611267,459.13327c0.10199,-0.304993 11.063965,-6.598999 11.063965,-6.598999l-3.044983,14.720001l-8.018982,-8.121002z" fill="#ffaaaa"/>
   <polygon id="polygon3236" points="257.8282470703125,447.5622863769531 256.30523681640625,454.9712829589844 266.6602783203125,448.06927490234375 257.8282470703125,447.5622863769531 " fill="#ffaaaa"/>
   <polygon id="polygon3238" points="254.0732421875,448.5772705078125 244.53225708007812,447.1542663574219 252.04225158691406,454.9712829589844 254.0732421875,448.5772705078125 " fill="#ffaaaa"/>
   <path id="path3240" d="m243.008255,452.534271c0.508987,0.406006 7.410995,6.192993 7.410995,6.192993l-10.658997,6.800995l3.248001,-12.993988z" fill="#ffaaaa"/>
   <polygon id="polygon3242" points="254.88424682617188,462.4822692871094 252.24525451660156,471.0102844238281 263.4112548828125,471.7212829589844 254.88424682617188,462.4822692871094 " fill="#ffaaaa"/>
   <polygon id="polygon3244" points="261.5852355957031,479.0292663574219 248.7952423095703,487.45428466796875 257.9302673339844,495.8792724609375 261.5852355957031,479.0292663574219 " fill="#ffaaaa"/>
   <polygon id="polygon3246" points="255.69725036621094,507.9592590332031 240.47024536132812,516.5872802734375 251.23025512695312,527.2462768554688 255.69725036621094,507.9592590332031 " fill="#ffaaaa"/>
   <path id="path3248" d="m237.932251,521.257263c-0.304001,0.405029 -7.309006,19.794983 -7.309006,19.794983l15.328003,-8.527954l-8.018997,-11.267029z" fill="#ffaaaa"/>
   <polygon id="polygon3250" points="246.2572479248047,491.5152587890625 240.77525329589844,510.80126953125 252.44924926757812,504.4062805175781 254.17425537109375,498.3162841796875 246.2572479248047,491.5152587890625 " fill="#ffaaaa"/>
   <path id="path3252" d="m249.911255,464.514282c-0.100998,0.304993 -1.725998,7.714996 -1.725998,7.714996l-10.152008,-1.421997l11.878006,-6.292999z" fill="#ffaaaa"/>
   <path id="path3254" d="m228.762253,619.553284l-4.167007,-6.616028c-0.580002,-1.127991 -1.776993,-1.911987 -3.175003,-1.911987c-1.960999,0 -3.552994,1.530029 -3.552994,3.41803c0,0.707947 0.223007,1.36499 0.606003,1.909973c0.106995,0.151001 0.229004,0.289978 0.358002,0.422974l4.380997,6.024048l5.550003,-3.247009z" fill="#ffaaaa"/>
   <path id="path3256" d="m237.161255,615.914246l-3.493011,-6.266968c-0.474991,-1.060974 -1.541992,-1.845032 -2.840988,-1.927979c-1.825012,-0.115051 -3.393005,1.184998 -3.501999,2.901001c-0.041,0.644958 0.127991,1.254944 0.454987,1.773987c0.088013,0.143005 0.195007,0.276978 0.308014,0.403992l3.724991,5.742981l5.348007,-2.627014z" fill="#ffaaaa"/>
   <path id="path3258" d="m239.861252,615.491272l6.563995,-2.029968c0,0 -2.705994,-7.646057 -6.158005,-5.617004c0,0 -3.587997,2.436951 -0.473999,7.511963c3.114014,5.075012 0.068008,0.13501 0.068008,0.13501z" fill="#ffaaaa"/>
   <path id="path3260" d="m206.769257,631.80127c-0.008011,0.242981 5.210999,-3.249023 5.210999,-3.249023c0,0 -5.075012,-0.677002 -5.210999,3.249023z" fill="#ffaaaa"/>
   <path id="path3262" d="m214.416245,627.063293c0.542007,-0.473022 5.617004,-3.450012 5.617004,-3.450012l-1.759995,-2.843018c0,0 -6.496002,-2.231995 -5.888,3.450989l2.030991,2.842041z" fill="#ffaaaa"/>
   <path id="path3264" d="m248.795242,612.717285l6.833008,-1.218994l-0.270996,-1.895996c0,0 -4.602005,-3.924011 -6.766998,0.880981l0.204987,2.234009z" fill="#ffaaaa"/>
   <path id="path3266" d="m258.26825,610.618286l6.768005,-1.218994c0,0 -3.452026,-3.315002 -6.768005,1.218994z" fill="#ffaaaa"/>
   <path id="path3268" d="m238.575256,473.17627c1.353989,0.406006 7.713989,1.623016 7.713989,1.623016l-1.894989,7.30899l-7.443008,-6.494995l1.624008,-2.437012z" fill="#ffaaaa"/>
   <path id="path3270" d="m236.681244,480.077271c-0.636993,1.910004 6.362,6.903992 6.362,6.903992l-9.203995,4.466003c0,0 2.977997,-11.774994 2.841995,-11.369995z" fill="#ffaaaa"/>
   <path id="path3272" d="m231.538254,499.838287c0.541,0 8.121002,0.677979 8.121002,0.677979l2.030991,-9.067993l-10.151993,5.684998l0.134995,2.165009l6.768005,4.737l-2.843002,8.390991l-5.819,-9.066986l3.653992,17.053986l-10.419998,12.992981l8.525009,-33.567963z" fill="#ffaaaa"/>
   <polygon id="polygon3274" points="320.2572326660156,437.10626220703125 329.39422607421875,436.69927978515625 323.9112243652344,431.8272705078125 320.2572326660156,437.10626220703125 " fill="#ffaaaa"/>
   <polygon id="polygon3276" points="178.55125427246094,613.7322998046875 211.84524536132812,614.7472534179688 227.4772491455078,590.791259765625 208.8002471923828,608.4542846679688 178.55125427246094,613.7322998046875 " fill="#ffaaaa"/>
   <path id="path3278" d="m332.843231,611.093262l6.700989,2.028992c0,0 -0.202972,-7.510986 -6.700989,-2.028992z" fill="#ffaaaa"/>
   <path id="path3280" d="m381.974243,624.492249c0.406006,0.812012 5.278992,9.947021 5.278992,9.947021l16.64801,-0.609009l-14.213013,-2.640015l-7.713989,-6.697998z" fill="#ffaaaa"/>
   <path id="path3282" d="m390.907227,639.312256c0.811005,1.218994 6.496002,10.354004 6.496002,10.354004l8.121002,-9.744995l-8.121002,4.061035l-6.496002,-4.670044z" fill="#ffaaaa"/>
   <path id="path3284" d="m402.277222,659.005249c0.609009,1.015015 6.902008,11.166016 6.902008,11.166016l9.338013,-0.203003l-8.119019,-3.045959l-8.121002,-7.917053z" fill="#ffaaaa"/>
   <path id="path3286" d="m342.183228,614.543274l37.964996,20.304016c0,0 -31.062988,-26.190002 -34.311005,-25.988037c-3.247986,0.203003 -3.856995,4.467041 -3.856995,5.07605" fill="#ffaaaa"/>
   <polygon id="polygon3288" points="333.2492370605469,482.17626953125 342.792236328125,488.47027587890625 336.90423583984375,495.37127685546875 333.2492370605469,482.17626953125 " fill="#ffaaaa"/>
   <polygon id="polygon3290" points="344.41522216796875,492.936279296875 338.52923583984375,501.4632873535156 347.2592468261719,504.9142761230469 344.41522216796875,492.936279296875 " fill="#ffaaaa"/>
   <polygon id="polygon3292" points="346.04022216796875,517.7032470703125 354.365234375,527.2462768554688 350.1012268066406,531.3062744140625 346.04022216796875,517.7032470703125 " fill="#ffaaaa"/>
   <polygon id="polygon3294" points="339.9482421875,431.624267578125 336.2942199707031,436.2942810058594 342.38623046875,436.90228271484375 339.9482421875,431.624267578125 " fill="#ffaaaa"/>
   <path id="path3296" d="m264.224243,388.17926c1.421021,1.21701 5.684998,5.075012 5.684998,5.075012l11.165009,-11.774994l-5.277008,-7.511017l-11.774994,8.729004l0.201996,5.481995z" fill="#ffaaaa"/>
   <path id="path3298" d="m267.269257,364.831268c0.608978,1.015015 4.872986,8.324005 4.872986,8.324005l-7.511993,5.075012l2.639008,-13.399017z" fill="#ffaaaa"/>
   <path id="path3300" d="m266.86322,353.868286c0.609009,1.217987 7.715027,11.165985 7.715027,11.165985l9.337982,-9.541992l-6.902008,-10.151001l-10.151001,8.527008z" fill="#ffaaaa"/>
   <polygon id="polygon3302" points="268.0812683105469,349.1982727050781 274.1722412109375,342.2962646484375 268.0812683105469,334.3792724609375 268.0812683105469,349.1982727050781 " fill="#ffaaaa"/>
   <polygon id="polygon3304" points="268.6902770996094,325.4462890625 278.23223876953125,318.74627685546875 270.7202453613281,309.6102600097656 268.6902770996094,325.4462890625 " fill="#ffaaaa"/>
   <polygon id="polygon3306" points="272.1412353515625,288.49627685546875 269.90924072265625,302.5042724609375 280.6692199707031,295.1962890625 272.1412353515625,288.49627685546875 " fill="#ffaaaa"/>
   <polygon id="polygon3308" points="272.5472412109375,280.7812805175781 282.9012451171875,272.4582824707031 274.375244140625,263.728271484375 272.1412353515625,281.7972717285156 272.5472412109375,280.7812805175781 " fill="#ffaaaa"/>
   <polygon id="polygon3310" points="274.7812194824219,258.24725341796875 274.9842224121094,259.2612609863281 285.7442321777344,250.9382781982422 275.7962341308594,242.20826721191406 274.7812194824219,258.24725341796875 " fill="#ffaaaa"/>
   <polygon id="polygon3312" points="278.0302429199219,220.4852752685547 276.2022399902344,237.9452667236328 285.7442321777344,231.04226684570312 278.0302429199219,220.4852752685547 " fill="#ffaaaa"/>
   <polygon id="polygon3314" points="278.84124755859375,218.2512664794922 286.9632263183594,211.34927368164062 279.2472229003906,203.63526916503906 278.84124755859375,218.2512664794922 " fill="#ffaaaa"/>
   <polygon id="polygon3316" points="280.2622375488281,200.3862762451172 288.1792297363281,194.9052734375 280.8712463378906,186.78427124023438 280.2622375488281,200.3862762451172 " fill="#ffaaaa"/>
   <polygon id="polygon3318" points="281.2772216796875,184.3482666015625 289.1952209472656,178.05526733398438 282.0892333984375,169.7302703857422 281.2772216796875,184.3482666015625 " fill="#ffaaaa"/>
   <polygon id="polygon3320" points="282.4952392578125,168.1062774658203 289.1952209472656,163.64027404785156 283.5102233886719,155.51927185058594 282.4952392578125,168.1062774658203 " fill="#ffaaaa"/>
   <polygon id="polygon3322" points="284.1202392578125,153.28627014160156 290.6162414550781,148.21127319335938 285.3382263183594,143.33827209472656 284.1202392578125,153.28627014160156 " fill="#ffaaaa"/>
   <path id="path3324" d="m285.135223,140.293274l5.684998,-4.264008c0,0 -4.264984,-6.496002 -4.264984,-5.684998c-0.001007,0.813004 -1.420013,9.949005 -1.420013,9.949005z" fill="#ffaaaa"/>
   <polygon id="polygon3326" points="285.7442321777344,127.0972671508789 292.0382385253906,123.8492660522461 286.5542297363281,117.55526733398438 285.7442321777344,127.0972671508789 " fill="#ffaaaa"/>
   <polygon id="polygon3328" points="287.5702209472656,116.33626556396484 292.646240234375,112.47926330566406 287.5702209472656,106.9982681274414 287.5702209472656,116.33626556396484 " fill="#ffaaaa"/>
   <polygon id="polygon3330" points="288.78924560546875,104.76526641845703 292.4432373046875,102.53226470947266 289.80322265625,98.06526947021484 288.78924560546875,104.76526641845703 " fill="#ffaaaa"/>
   <path id="path3332" d="m273.494232,334.447266c0.812988,0.541016 3.519989,6.225006 3.519989,6.225006l8.662018,-10.015991l-7.30899,-0.541016l-4.331024,-5.684998l-0.541992,10.016998z" fill="#ffaaaa"/>
   <polygon id="polygon3334" points="275.11822509765625,309.5422668457031 279.990234375,315.4982604980469 286.48822021484375,309.81427001953125 281.0732421875,309.27227783203125 276.47222900390625,301.9632873535156 274.5782470703125,302.5042724609375 275.11822509765625,309.5422668457031 " fill="#ffaaaa"/>
   <polygon id="polygon3336" points="276.74322509765625,287.0752868652344 282.42724609375,292.48828125 287.84222412109375,286.2632751464844 281.34423828125,285.7232666015625 279.4502258300781,278.14227294921875 276.74322509765625,279.76727294921875 276.74322509765625,287.0752868652344 " fill="#ffaaaa"/>
   <polygon id="polygon3338" points="278.9082336425781,263.7962646484375 285.4052429199219,270.29327392578125 289.1952209472656,268.12628173828125 283.7812194824219,264.3372802734375 287.84222412109375,253.7802734375 278.6372375488281,260.54827880859375 278.9082336425781,263.7962646484375 " fill="#ffaaaa"/>
   <polygon id="polygon3340" points="286.7602233886719,248.36727905273438 279.99224853515625,243.49427795410156 280.2622375488281,239.7042694091797 288.3842468261719,232.9382781982422 285.6762390136719,239.97528076171875 286.7602233886719,248.36727905273438 " fill="#ffaaaa"/>
   <path id="path3342" d="m575.470215,626.354248c-6.109009,-3.180969 -14.143005,-6.487 -24.782959,-9.985962c-30.859009,-10.152039 -22.738037,23.955017 -22.738037,23.955017c-37.761993,-15.02301 -56.845978,27.203979 -56.845978,27.203979c-32.076019,-8.527039 -53.597992,32.890015 -53.597992,32.890015c-57.25,6.089966 -35.324005,62.528992 -35.324005,62.528992l9.302979,0.645996c0.518005,-15.958008 8.180023,-34.273987 39.421997,-37.598022c0,0 21.52002,-41.414001 53.596008,-32.888c0,0 19.084015,-42.227966 56.845978,-27.205017c0,0 -8.120972,-34.105957 22.738037,-23.955994c4.188965,1.379028 7.960999,2.726013 11.38501,4.048035l0,-19.639038l-0.001038,0z" fill="#ffaaaa"/>
   <path id="path3344" d="m197.217255,722.957275c2.166,-7.036987 -9.20401,-14.075012 -9.20401,-14.075012c-5.412994,-12.451965 -64.152992,-23.549988 -64.152992,-23.549988c-18.678001,-26.796997 -73.899002,-27.341003 -73.899002,-27.341003c-10.506001,-26.510986 -35.808001,-17.705994 -41.721,-16.390015l0,25.992004c9.044,-2.210999 29.344001,-5.841003 38.472999,17.197021c0,0 55.220001,0.542969 73.898003,27.341003c0,0 57.623001,12.125 64.660995,23.088013c0,0 3.651001,3.039001 6.459,6.633972l10.89801,0c-0.022003,-12.39502 -7.575012,-11.867981 -5.412003,-18.895996z" fill="#ffaaaa"/>
   <path id="path3346" d="m431.070221,710.165283c-140.599976,-233.057007 -277.889984,-0.007019 -275.865967,-2.436035c140.741974,-169.020996 229.095978,-53.230957 259.835968,2.436035l16.029999,0z" fill="#ffaaaa"/>
  </g>
 </g>
 <g>
  <title>oohlala</title>
  <text font-weight="bold" font-style="italic" transform="matrix(4.03631 0 0 4.03631 -1131.26 -346.665)" xml:space="preserve" text-anchor="middle" font-family="Times New Roman" font-size="24" id="svg_2" y="117.181858" x="448.436876" stroke-linecap="null" stroke-linejoin="null" stroke-dasharray="null" stroke-width="0" stroke="#000000" fill="#ffaaaa">ooh~la~la!</text>
 </g>
</svg>